<?xml version="1.0" encoding="UTF-8"?><svg id="Layer_2" xmlns="http://www.w3.org/2000/svg" xmlns:xlink="http://www.w3.org/1999/xlink" viewBox="0 0 273 228.17"><defs><style>.cls-1{fill:url(#linear-gradient);}.cls-1,.cls-2,.cls-3,.cls-4,.cls-5,.cls-6{stroke-width:0px;}.cls-2{fill:url(#linear-gradient-5);}.cls-3{fill:url(#linear-gradient-2);}.cls-4{fill:url(#linear-gradient-3);}.cls-5{opacity:.15;}.cls-6{fill:url(#linear-gradient-4);}</style><linearGradient id="linear-gradient" x1="25.84" y1="-15902.04" x2="46.96" y2="-16007.37" gradientTransform="translate(257.49 16032.14) rotate(-180) scale(1 -1)" gradientUnits="userSpaceOnUse"><stop offset="0" stop-color="#023972"/><stop offset="1" stop-color="#0a8063"/></linearGradient><linearGradient id="linear-gradient-2" x1="173.71" y1="-15811.69" x2="157.46" y2="-15886.31" xlink:href="#linear-gradient"/><linearGradient id="linear-gradient-3" x1="73.3" y1="-15829.15" x2="57.27" y2="-15902.71" gradientTransform="translate(257.49 16032.14) rotate(-180) scale(1 -1)" gradientUnits="userSpaceOnUse"><stop offset="0" stop-color="#617aff"/><stop offset="1" stop-color="#6218ab"/></linearGradient><linearGradient id="linear-gradient-4" x1="73.3" y1="-15829.15" x2="57.27" y2="-15902.71" xlink:href="#linear-gradient"/><linearGradient id="linear-gradient-5" x1="360.49" y1="172.48" x2="154.23" y2="176.84" gradientTransform="matrix(1,0,0,1,0,0)" xlink:href="#linear-gradient"/></defs><g id="Layer_1-2"><polygon class="cls-5" points="273 0 162.42 180.22 273 147.81 273 0"/><polygon class="cls-1" points="273 0 174.27 180.22 273 147.81 273 0"/><polygon class="cls-3" points="178.54 162.29 0 228.17 125.23 228.17 178.54 162.29"/><polygon class="cls-5" points="248.23 139.25 166.53 139.25 117.66 221.2 248.23 139.25"/><polygon class="cls-4" points="248.23 139.25 166.53 139.25 130.99 217 248.23 139.25"/><polygon class="cls-6" points="248.23 139.25 166.53 139.25 130.99 217 248.23 139.25"/><polygon class="cls-5" points="273 120.49 51.84 228.17 273 228.17 273 120.49"/><polygon class="cls-2" points="273 120.49 68.62 228.17 273 228.17 273 120.49"/></g></svg>