<?xml version="1.0" encoding="UTF-8"?><svg id="Layer_2" xmlns="http://www.w3.org/2000/svg" xmlns:xlink="http://www.w3.org/1999/xlink" viewBox="0 0 1370 653.09"><defs><style>.cls-1{fill:url(#linear-gradient);}.cls-1,.cls-2,.cls-3,.cls-4,.cls-5,.cls-6,.cls-7,.cls-8{stroke-width:0px;}.cls-2{fill:url(#linear-gradient-6);}.cls-3{fill:#0a8063;fill-rule:evenodd;}.cls-4{fill:url(#linear-gradient-5);}.cls-5{fill:url(#linear-gradient-2);}.cls-6{fill:url(#linear-gradient-3);}.cls-9{opacity:.1;}.cls-7{opacity:.15;}.cls-8{fill:url(#linear-gradient-4);}</style><linearGradient id="linear-gradient" x1="1225.21" y1="646.95" x2="-300.69" y2="617.16" gradientUnits="userSpaceOnUse"><stop offset="0" stop-color="#023972"/><stop offset="1" stop-color="#0a8063"/></linearGradient><linearGradient id="linear-gradient-2" x1="1122.84" y1="-15479.39" x2="1143.96" y2="-15584.71" gradientTransform="translate(2451.49 16032.14) rotate(-180) scale(1 -1)" xlink:href="#linear-gradient"/><linearGradient id="linear-gradient-3" x1="1270.71" y1="-15389.04" x2="1254.46" y2="-15463.66" gradientTransform="translate(2451.49 16032.14) rotate(-180) scale(1 -1)" xlink:href="#linear-gradient"/><linearGradient id="linear-gradient-4" x1="1170.3" y1="-15406.5" x2="1154.27" y2="-15480.06" gradientTransform="translate(2451.49 16032.14) rotate(-180) scale(1 -1)" gradientUnits="userSpaceOnUse"><stop offset="0" stop-color="#617aff"/><stop offset="1" stop-color="#6218ab"/></linearGradient><linearGradient id="linear-gradient-5" x1="1170.3" y1="-15406.5" x2="1154.27" y2="-15480.06" gradientTransform="translate(2451.49 16032.14) rotate(-180) scale(1 -1)" xlink:href="#linear-gradient"/><linearGradient id="linear-gradient-6" x1="1457.49" y1="595.13" x2="1251.23" y2="599.49" xlink:href="#linear-gradient"/></defs><g id="Layer_1-2"><g class="cls-9"><path class="cls-3" d="m1225.63,242.04c-40.73,71.62-168.19,122.98-185.42,130.73v-74.68c-45.47,28.91-87.74,54.84-137.53,80.77-49.36,27.96-102.23,52.65-156.86,72.84l-.94.37c-33.31,14.37-67.73,25.92-102.86,34.46-31.89,9.15-65.15,14.88-99.01,16.97-18.9,1.65-37.29,1.65-55.74,0-16.35-.95-31.82-5.11-46.06-12.32-6.63-3.23-11.3-9.14-12.75-16.36-2.5-14.83.51-30.17,8.68-42.82,9.32-18.17,36.45-46.67,52.01-59.82,77.71-31.66,142.16-47.52,222.09-72.54,78.31-26.29,152.78-48.69,227.74-68.75,42.8-11.95,119.92-26.94,165.57-33.22,24.9-3.32,157.06-25.81,121.06,44.38m-850.17,174.01c-5.79,25.05-10.71,137.21.26,178.31,6.14,15.76,23.33,44.53,41.86,49.88l229.88-.37c202.76-58.92,623.78-293.23,641.2-408.02.25-1.77.34-3.32.34-4.96-.21-27.51-11.22-41.37-23.95-52.84-93.15-84.02-701.48,144.73-745.87,162.8,38.4-38.63,81.21-72.82,128.14-102.11,46.99-28.4,95.22-54.58,145.1-78.63,42.65-20.22,86.47-37.96,130.46-53.08,40.66-14.61,76.04-26.83,117.32-35.31V0h-.42c-41.11,6.2-74.14,15.24-113.1,27.94-300.84,98.03-484.42,254.21-532.42,343.73-14.36,10.5-139.59,67.8-197.5,98.8-44.18,22.24-76.31,39.42-119.08,67.15-.66.68-.79,1.67-.66,2.43.66.91,1.47,1.63,2.43,1.92,1.3.49,2.75.67,3.96.17,3.24-1.18,6.28-2.38,12.67-5.42,49.53-24.93,78.72-36.43,130.31-60.15,43.82-20.46,149.05-60.5,149.05-60.5"/></g><rect class="cls-1" y="617.09" width="1236" height="36"/><polygon class="cls-7" points="1370 422.65 1259.42 602.88 1370 570.46 1370 422.65"/><polygon class="cls-5" points="1370 422.65 1271.27 602.88 1370 570.46 1370 422.65"/><polygon class="cls-6" points="1275.54 584.94 1097 650.82 1222.23 650.82 1275.54 584.94"/><polygon class="cls-7" points="1345.23 561.9 1263.53 561.9 1214.66 643.85 1345.23 561.9"/><polygon class="cls-8" points="1345.23 561.9 1263.53 561.9 1227.99 639.66 1345.23 561.9"/><polygon class="cls-4" points="1345.23 561.9 1263.53 561.9 1227.99 639.66 1345.23 561.9"/><polygon class="cls-7" points="1370 543.14 1148.84 650.82 1370 650.82 1370 543.14"/><polygon class="cls-2" points="1370 543.14 1165.62 650.82 1370 650.82 1370 543.14"/></g></svg>